<svg width="1600" height="600" viewBox="0 0 1600 600" fill="none" xmlns="http://www.w3.org/2000/svg">
  <defs>
    <linearGradient id="bg" x1="0" y1="0" x2="1600" y2="600" gradientUnits="userSpaceOnUse">
      <stop offset="0" stop-color="#F8F8FA"/>
      <stop offset="1" stop-color="#ECEEF2"/>
    </linearGradient>
    <radialGradient id="glowA" cx="0" cy="0" r="1" gradientUnits="userSpaceOnUse" gradientTransform="translate(340 120) rotate(31) scale(440 300)">
      <stop stop-color="#FFFFFF"/>
      <stop offset="1" stop-color="#F4F6FA" stop-opacity="0"/>
    </radialGradient>
    <radialGradient id="glowB" cx="0" cy="0" r="1" gradientUnits="userSpaceOnUse" gradientTransform="translate(1260 420) rotate(162) scale(520 280)">
      <stop stop-color="#DAE0EA"/>
      <stop offset="1" stop-color="#DAE0EA" stop-opacity="0"/>
    </radialGradient>
    <linearGradient id="deck" x1="260" y1="314" x2="860" y2="314" gradientUnits="userSpaceOnUse">
      <stop stop-color="#9AA4B2"/>
      <stop offset="1" stop-color="#6C7481"/>
    </linearGradient>
    <linearGradient id="wheel" x1="0" y1="0" x2="1" y2="1">
      <stop stop-color="#0F172A"/>
      <stop offset="1" stop-color="#334155"/>
    </linearGradient>
    <filter id="shadow" x="220" y="200" width="690" height="250" filterUnits="userSpaceOnUse" color-interpolation-filters="sRGB">
      <feDropShadow dx="0" dy="24" stdDeviation="20" flood-color="#0F172A" flood-opacity="0.16"/>
    </filter>
  </defs>

  <rect width="1600" height="600" rx="28" fill="url(#bg)"/>
  <rect width="1600" height="600" rx="28" fill="url(#glowA)"/>
  <rect width="1600" height="600" rx="28" fill="url(#glowB)"/>

  <g opacity="0.5">
    <circle cx="158" cy="110" r="3" fill="#9CA3AF"/>
    <circle cx="206" cy="150" r="2.5" fill="#A8B0BC"/>
    <circle cx="252" cy="96" r="2" fill="#B5BDC8"/>
    <circle cx="1320" cy="88" r="2.5" fill="#9CA3AF"/>
    <circle cx="1378" cy="130" r="2" fill="#B5BDC8"/>
  </g>

  <g filter="url(#shadow)">
    <rect x="260" y="262" width="600" height="104" rx="52" fill="url(#deck)"/>
    <rect x="298" y="287" width="524" height="54" rx="27" fill="#C6CDD7" fill-opacity="0.58"/>
    <circle cx="376" cy="395" r="42" fill="url(#wheel)"/>
    <circle cx="376" cy="395" r="20" fill="#94A3B8"/>
    <circle cx="744" cy="395" r="42" fill="url(#wheel)"/>
    <circle cx="744" cy="395" r="20" fill="#94A3B8"/>
  </g>

  <path d="M1020 478C1123 444 1204 417 1315 382" stroke="#9AA4B2" stroke-width="3" stroke-linecap="round" stroke-opacity="0.45"/>

  <text x="930" y="238" fill="#0F172A" font-family="Inter, -apple-system, BlinkMacSystemFont, 'Segoe UI', sans-serif" font-size="68" font-weight="600" letter-spacing="1.2">滑板交流网站</text>
  <text x="932" y="300" fill="#475569" font-family="Inter, -apple-system, BlinkMacSystemFont, 'Segoe UI', sans-serif" font-size="34" font-weight="400">极简 · 专注 · 同城连接</text>
</svg>
